<svg width="32" height="32" viewBox="0 0 32 32" fill="none" xmlns="http://www.w3.org/2000/svg">
<path d="M22.6668 27.9996C23.0204 27.9996 23.3595 27.8591 23.6096 27.609C23.8596 27.359 24.0001 27.0198 24.0001 26.6662V19.5329C24.0001 18.9235 24.4214 18.4076 24.9694 18.1449C26.1041 17.6036 27.011 16.6789 27.5303 15.5341C28.0495 14.3892 28.1476 13.0977 27.8073 11.8875C27.467 10.6773 26.7102 9.62622 25.6704 8.91974C24.6305 8.21327 23.3746 7.89681 22.1241 8.02622C21.6091 6.82916 20.7546 5.80928 19.6662 5.09267C18.5778 4.37606 17.3032 3.99414 16.0001 3.99414C14.697 3.99414 13.4224 4.37606 12.334 5.09267C11.2456 5.80928 10.3911 6.82916 9.87611 8.02622C8.62622 7.89771 7.37109 8.21462 6.33202 8.92107C5.29295 9.62751 4.53666 10.6781 4.19649 11.8877C3.85632 13.0972 3.95412 14.3881 4.47265 15.5326C4.99117 16.677 5.89713 17.6017 7.03078 18.1436C7.57878 18.4076 8.00011 18.9236 8.00011 19.5316V26.6662C8.00011 27.0198 8.14059 27.359 8.39063 27.609C8.64068 27.8591 8.97982 27.9996 9.33344 27.9996H22.6668Z" stroke="#00D492" stroke-width="2.66667" stroke-linecap="round" stroke-linejoin="round"/>
<path d="M8 22.667H24" stroke="#00D492" stroke-width="2.66667" stroke-linecap="round" stroke-linejoin="round"/>
</svg>
